<svg xmlns="http://www.w3.org/2000/svg" width="31" height="22" viewBox="0 0 31 22" fill="none">
  <path d="M29.3198 8.72652V11.4998C29.3198 11.7843 29.3056 12.0687 29.2914 12.3532C29.0212 17.3167 26.2478 19.8198 20.9856 19.8198H9.89227C9.55093 19.8198 9.2096 19.7914 8.88249 19.7487C4.35982 19.4501 1.94204 17.0323 1.64338 12.5096C1.60071 12.1825 1.57227 11.8412 1.57227 11.4998V8.72652C1.57227 5.86785 3.30738 3.40741 5.78204 2.34074C6.63538 1.98518 7.5456 1.78607 8.51271 1.78607H22.3936C23.0905 1.78607 23.7732 1.88563 24.3989 2.07052C27.2292 2.93807 29.3198 5.5834 29.3198 8.72652Z" stroke="#141010" stroke-width="3" stroke-linecap="round" stroke-linejoin="round"/>
</svg>